<svg width="28" height="30" viewBox="0 0 28 30" fill="none" xmlns="http://www.w3.org/2000/svg">
<g filter="url(#filter0_d_2125_483)">
<path d="M23.5306 20.4693L18.8365 15.7762C20.1971 14.1428 20.8755 12.0478 20.7307 9.92691C20.5859 7.80604 19.629 5.82265 18.0591 4.38932C16.4892 2.95599 14.4271 2.18308 12.3019 2.23138C10.1766 2.27968 8.15181 3.14547 6.64864 4.64864C5.14547 6.15181 4.27968 8.17663 4.23138 10.3019C4.18308 12.4271 4.95599 14.4892 6.38932 16.0591C7.82265 17.629 9.80604 18.5859 11.9269 18.7307C14.0478 18.8755 16.1428 18.1971 17.7762 16.8365L22.4693 21.5306C22.539 21.6003 22.6218 21.6556 22.7128 21.6933C22.8038 21.731 22.9014 21.7504 23 21.7504C23.0985 21.7504 23.1961 21.731 23.2871 21.6933C23.3782 21.6556 23.4609 21.6003 23.5306 21.5306C23.6003 21.4609 23.6556 21.3782 23.6933 21.2871C23.731 21.1961 23.7504 21.0985 23.7504 21C23.7504 20.9014 23.731 20.8038 23.6933 20.7128C23.6556 20.6218 23.6003 20.539 23.5306 20.4693ZM5.74997 10.5C5.74997 9.16495 6.14585 7.8599 6.88755 6.74987C7.62925 5.63984 8.68346 4.77467 9.91686 4.26378C11.1503 3.75289 12.5075 3.61922 13.8168 3.87967C15.1262 4.14012 16.3289 4.78299 17.2729 5.727C18.2169 6.671 18.8598 7.87374 19.1203 9.18311C19.3807 10.4925 19.2471 11.8497 18.7362 13.0831C18.2253 14.3165 17.3601 15.3707 16.2501 16.1124C15.14 16.8541 13.835 17.25 12.5 17.25C10.7104 17.248 8.99463 16.5362 7.72919 15.2708C6.46375 14.0053 5.75196 12.2896 5.74997 10.5Z" fill="#EF5F4C"/>
</g>
<defs>
<filter id="filter0_d_2125_483" x="-2" y="0" width="32" height="32" filterUnits="userSpaceOnUse" color-interpolation-filters="sRGB">
<feFlood flood-opacity="0" result="BackgroundImageFix"/>
<feColorMatrix in="SourceAlpha" type="matrix" values="0 0 0 0 0 0 0 0 0 0 0 0 0 0 0 0 0 0 127 0" result="hardAlpha"/>
<feOffset dy="4"/>
<feGaussianBlur stdDeviation="2"/>
<feComposite in2="hardAlpha" operator="out"/>
<feColorMatrix type="matrix" values="0 0 0 0 0 0 0 0 0 0 0 0 0 0 0 0 0 0 0.25 0"/>
<feBlend mode="normal" in2="BackgroundImageFix" result="effect1_dropShadow_2125_483"/>
<feBlend mode="normal" in="SourceGraphic" in2="effect1_dropShadow_2125_483" result="shape"/>
</filter>
</defs>
</svg>
